<?xml version="1.0" encoding="UTF-8"?>
<svg id="Layer_2" xmlns="http://www.w3.org/2000/svg" viewBox="0 0 90 75.08">
  <defs>
    <style>
      .cls-1 {
        font-family: KozGoPr6N-Regular-90ms-RKSJ-H, 'Kozuka Gothic Pr6N';
        font-size: 18px;
      }
    </style>
  </defs>
  <g id="Layer_3">
    <path d="M26.13,39.64c0,2.74,2.22,4.95,4.96,4.95s4.95-2.22,4.95-4.95-2.22-4.95-4.95-4.95-4.96,2.22-4.96,4.95ZM50.9,39.64c0,2.74,2.22,4.95,4.96,4.95s4.95-2.22,4.95-4.95-2.22-4.95-4.95-4.95-4.96,2.22-4.96,4.95ZM34.92,27.93l27.42-7.83c.52-.15.95-.72.95-1.26V5.2H28.36V.99c0-.55-.45-.99-.99-.99h-7.68c-.55,0-.99.45-.99.99v3.96h4.81l4.87,22.44.47,2.34v3.72c0,.54.45.99.99.99h32.45c.55,0,.99-.45.99-.99v-3.72h-27.87c-2.85,0-2.91-1.12-.51-1.8Z"/>
    <text class="cls-1" transform="translate(0 68.97)"><tspan x="0" y="0">マイカート</tspan></text>
  </g>
</svg>