<?xml version="1.0" encoding="UTF-8"?>
<svg id="Layer_2" xmlns="http://www.w3.org/2000/svg" viewBox="0 0 90 83.63">
  <defs>
    <style>
      .cls-1 {
        font-family: KozGoPr6N-Regular-90ms-RKSJ-H, 'Kozuka Gothic Pr6N';
        font-size: 18px;
      }
    </style>
  </defs>
  <g id="Layer_3">
    <path d="M56.48,39.02c-7.15-2.61-9.44-4.81-9.44-9.51,0-2.83,2.18-1.9,3.14-7.08.4-2.15,2.33-.03,2.7-4.94,0-1.95-1.05-2.44-1.05-2.44,0,0,.54-2.89.74-5.12.26-2.77-1.6-9.93-11.53-9.93s-11.79,7.16-11.53,9.93c.21,2.23.74,5.12.74,5.12,0,0-1.05.49-1.05,2.44.37,4.9,2.3,2.79,2.7,4.94.96,5.18,3.14,4.25,3.14,7.08,0,4.71-2.29,6.91-9.44,9.51-7.18,2.61-11.84,5.28-11.84,7.1v6.11h54.55v-6.11c0-1.82-4.66-4.48-11.84-7.1Z"/>
    <text class="cls-1" transform="translate(0 77.53)"><tspan x="0" y="0">マイページ</tspan></text>
  </g>
</svg>